<?xml version="1.0" standalone="no"?>
<!DOCTYPE svg PUBLIC "-//W3C//DTD SVG 20010904//EN"
 "http://www.w3.org/TR/2001/REC-SVG-20010904/DTD/svg10.dtd">
<svg version="1.0" xmlns="http://www.w3.org/2000/svg"
 width="603.000000pt" height="333.000000pt" viewBox="0 0 603.000000 333.000000"
 preserveAspectRatio="xMidYMid meet">

<g transform="translate(0.000000,333.000000) scale(0.100000,-0.100000)"
fill="#000000" stroke="none">
<path d="M1420 3203 c0 -5 8 -29 17 -56 l17 -47 -27 -27 c-25 -25 -29 -26 -60
-15 -18 7 -49 12 -69 12 -33 0 -36 -3 -42 -35 -4 -20 -5 -39 -2 -44 3 -5 -1
-11 -9 -15 -8 -3 -15 -15 -15 -26 0 -11 -4 -20 -8 -20 -5 0 -17 -7 -28 -15
-18 -14 -18 -14 9 -15 21 0 30 6 34 20 4 15 14 20 39 20 27 0 34 4 34 20 0 11
-7 20 -15 20 -18 0 -20 31 -3 48 18 18 88 16 88 -3 0 -14 18 -21 70 -27 22 -3
25 -8 28 -50 3 -39 0 -49 -18 -58 -12 -6 -25 -21 -29 -33 -15 -40 83 -102 104
-66 4 6 -2 17 -14 25 -21 15 -22 37 -4 84 4 8 7 20 7 25 1 6 8 22 15 37 18 36
8 58 -28 58 -38 0 -49 26 -21 52 26 24 26 53 0 71 -16 11 -19 21 -14 41 6 24
4 26 -25 26 -17 0 -31 -3 -31 -7z"/>
<path d="M1530 3200 c0 -6 11 -15 25 -20 23 -9 25 -15 25 -70 0 -34 -5 -70
-10 -81 -9 -15 -7 -21 5 -25 27 -11 35 8 41 102 7 90 6 91 -17 97 -36 10 -69
8 -69 -3z"/>
<path d="M1220 3132 c0 -38 7 -55 19 -47 10 5 0 85 -10 85 -5 0 -9 -17 -9 -38z"/>
<path d="M1047 3084 c-11 -11 -8 -36 8 -68 8 -15 15 -37 15 -47 0 -34 17 -28
24 9 4 27 2 40 -10 49 -8 6 -18 23 -22 38 -4 14 -11 23 -15 19z"/>
<path d="M1152 3023 c3 -33 7 -38 31 -41 35 -4 37 25 4 56 -32 31 -39 28 -35
-15z"/>
<path d="M1211 2783 c-8 -17 -9 -29 -3 -31 6 -2 20 -12 33 -23 29 -25 37 -24
44 4 15 64 12 72 -26 75 -30 3 -37 -1 -48 -25z"/>
<path d="M1550 2766 c0 -9 7 -16 16 -16 9 0 14 5 12 12 -6 18 -28 21 -28 4z"/>
<path d="M880 2733 c-8 -3 -19 -12 -23 -19 -5 -8 -25 -14 -51 -14 -37 0 -48
-6 -89 -47 -29 -29 -47 -56 -47 -70 0 -13 -7 -26 -15 -29 -23 -9 -19 -70 7
-104 18 -25 29 -30 62 -30 23 0 46 -4 52 -8 16 -11 14 -119 -2 -159 -14 -32
-14 -37 0 -52 15 -14 17 -13 32 7 16 23 67 31 79 13 9 -16 67 -41 93 -41 13 0
41 14 62 30 21 17 46 30 57 30 10 0 28 6 39 14 11 8 30 16 44 18 16 2 26 12
31 32 10 35 24 46 62 46 31 0 34 8 10 25 -11 8 -24 10 -33 5 -21 -11 -33 -2
-50 39 -13 32 -15 33 -59 28 -25 -3 -47 -10 -49 -16 -2 -6 -15 -11 -28 -11
-28 0 -46 -35 -42 -79 3 -22 -1 -27 -24 -29 -34 -4 -94 27 -135 69 -67 69
-104 94 -128 86 -18 -7 -34 33 -24 60 8 23 50 40 68 29 5 -4 26 5 47 19 20 14
47 25 60 25 13 0 42 9 64 21 34 18 40 26 40 54 0 19 -7 41 -16 49 -15 16 -64
20 -94 9z m255 -333 c8 -13 -13 -40 -31 -40 -8 0 -14 10 -14 25 0 18 5 25 19
25 11 0 23 -5 26 -10z"/>
<path d="M1292 2689 c2 -6 8 -10 13 -10 5 0 11 4 13 10 2 6 -4 11 -13 11 -9 0
-15 -5 -13 -11z"/>
<path d="M996 2622 c-3 -6 -1 -14 5 -17 15 -10 25 3 12 16 -7 7 -13 7 -17 1z"/>
<path d="M1583 2598 c-10 -11 -30 -27 -46 -34 -35 -19 -26 -34 19 -34 51 0 74
16 74 49 0 36 -23 46 -47 19z"/>
<path d="M1032 2558 l3 -33 -65 -5 c-45 -3 -75 -12 -94 -26 -34 -25 -28 -44
14 -44 16 0 32 -4 35 -10 3 -5 15 -10 26 -10 19 0 19 1 4 16 -21 22 -14 39 16
39 17 0 25 -6 27 -22 5 -31 15 -29 29 7 10 28 15 30 62 30 49 0 68 14 36 26
-8 4 -15 15 -15 25 0 12 -10 23 -26 29 -44 17 -54 13 -52 -22z"/>
<path d="M1520 2396 c0 -18 -6 -41 -14 -51 -12 -16 -16 -17 -30 -6 -9 8 -16
28 -16 47 0 19 -3 34 -6 34 -18 0 -43 -24 -52 -49 -9 -24 -18 -31 -54 -38 -41
-8 -44 -11 -55 -55 -6 -26 -15 -53 -20 -60 -4 -7 -13 -27 -19 -44 -9 -26 -8
-35 7 -53 15 -18 25 -21 48 -16 16 3 31 14 34 24 3 14 12 17 36 13 17 -2 31
-10 31 -17 0 -8 9 -17 20 -20 16 -5 20 -15 20 -56 0 -42 -3 -49 -20 -49 -13 0
-20 -7 -20 -20 0 -11 -7 -20 -15 -20 -8 0 -15 9 -15 20 0 11 6 20 14 20 18 0
29 31 20 54 -5 13 -22 16 -95 16 -82 0 -89 -1 -89 -20 0 -17 -7 -20 -52 -20
-31 -1 -61 -7 -72 -15 -11 -8 -27 -15 -36 -15 -20 0 -53 -34 -43 -43 14 -15
59 -6 71 13 11 18 21 21 85 18 68 -3 72 -4 75 -28 2 -20 12 -28 50 -40 44 -14
47 -17 47 -50 0 -31 -3 -35 -30 -40 -41 -7 -32 -25 11 -24 27 1 42 9 62 33 87
104 96 112 116 109 11 -2 27 -16 34 -31 10 -21 17 -26 25 -18 6 6 23 11 37 11
15 0 35 10 46 21 17 19 26 21 92 16 40 -3 80 -11 88 -18 9 -7 18 -8 23 -3 10
11 2 224 -9 224 -13 0 -28 -46 -19 -61 12 -20 11 -96 -2 -104 -5 -4 -18 0 -28
9 -10 9 -27 16 -38 16 -26 0 -47 25 -39 45 4 10 -10 31 -39 59 -50 47 -52 57
-29 116 11 27 15 60 12 99 -7 95 -48 123 -48 33 0 -26 -4 -53 -9 -61 -16 -25
-31 -1 -31 49 0 44 -3 50 -30 64 l-30 14 0 -32z m-14 -179 c19 -11 18 -37 -1
-37 -8 0 -15 6 -15 14 0 8 -9 18 -20 21 -11 3 -20 12 -20 20 0 19 34 24 39 5
2 -8 9 -19 17 -23z"/>
<path d="M2136 2355 c-4 -12 -28 -15 -124 -15 -106 0 -121 -2 -137 -20 -10
-11 -28 -20 -41 -20 -12 0 -29 -3 -38 -6 -20 -8 -21 -44 -1 -44 11 0 15 -11
15 -40 0 -45 10 -52 25 -18 12 27 40 35 60 18 11 -9 15 -34 15 -87 0 -58 4
-80 19 -99 21 -26 18 -41 -21 -131 -10 -23 -15 -49 -12 -58 4 -10 -9 -29 -40
-56 -25 -22 -49 -52 -52 -65 -5 -21 -12 -24 -48 -24 -48 0 -61 7 -45 26 16 19
4 44 -21 44 -15 0 -20 -7 -20 -25 0 -16 -6 -25 -16 -25 -9 0 -23 -9 -32 -20
-10 -11 -34 -28 -56 -39 -38 -18 -38 -18 -14 -24 14 -4 36 -22 49 -42 16 -22
32 -35 47 -35 12 0 30 -9 39 -20 12 -14 30 -20 59 -20 28 0 46 -6 58 -19 10
-11 24 -17 31 -14 8 2 22 -5 32 -16 14 -17 29 -21 75 -21 43 0 58 -4 58 -14 0
-15 42 -26 97 -26 19 0 41 -7 49 -15 11 -11 38 -15 94 -15 57 0 81 -4 87 -14
14 -24 83 -37 120 -24 18 7 33 18 33 25 0 9 16 13 50 13 28 0 50 5 50 11 0 9
-203 4 -237 -6 -7 -2 -15 0 -18 5 -4 6 -43 10 -89 10 l-82 0 -12 33 c-16 45
-15 74 3 81 8 3 15 12 15 21 0 18 -26 20 -37 2 -4 -7 -26 -27 -48 -45 -71 -57
-94 -36 -65 58 13 42 22 56 39 58 11 2 21 10 21 18 0 8 8 14 19 14 10 0 24 7
32 16 22 27 66 44 113 44 25 0 48 5 51 10 3 6 15 10 26 10 10 0 19 7 19 15 0
8 6 15 14 15 8 0 29 13 47 30 32 29 33 29 178 33 80 3 171 10 201 17 60 14
171 16 238 5 25 -4 54 -3 70 4 15 6 48 12 74 13 37 2 52 -3 71 -20 13 -12 31
-22 41 -22 13 0 17 -7 14 -32 -3 -31 -5 -33 -57 -41 -30 -4 -62 -14 -71 -22
-22 -20 -60 -19 -75 2 -7 9 -17 13 -24 9 -16 -10 38 -66 64 -66 11 0 28 -9 38
-20 9 -11 26 -20 36 -20 24 0 71 -42 71 -63 0 -8 6 -18 13 -20 6 -3 -30 -6
-81 -6 -86 -1 -94 1 -99 19 -3 11 -10 20 -17 20 -15 -1 -56 -36 -56 -48 0 -6
-6 -13 -12 -15 -8 -3 -6 -6 5 -6 9 -1 17 6 17 14 0 24 56 20 63 -5 5 -19 14
-20 136 -20 l131 0 0 25 c0 25 25 45 56 45 9 0 22 7 28 15 7 9 30 15 66 16 50
1 59 5 97 42 38 37 45 39 68 29 14 -6 25 -20 25 -31 0 -22 25 -45 39 -37 5 4
19 -3 30 -15 17 -18 35 -22 111 -27 84 -4 92 -3 111 17 11 11 29 21 40 21 19
0 31 11 107 93 46 50 45 96 -3 138 -42 37 -45 59 -9 59 38 0 84 50 84 91 0 28
-13 45 -85 116 -59 57 -92 83 -109 83 -13 0 -26 7 -30 15 -4 12 -24 15 -86 15
-62 0 -82 -3 -86 -15 -5 -12 -27 -15 -114 -15 -87 0 -109 3 -114 15 -3 8 -17
15 -30 15 -14 0 -31 9 -40 21 -12 18 -22 20 -75 17 -54 -3 -62 0 -76 20 -13
17 -26 22 -61 22 -30 0 -46 5 -50 15 -4 10 -20 15 -49 15 -56 0 -75 -8 -75
-30 0 -24 29 -33 75 -24 30 5 41 2 61 -17 13 -12 24 -28 24 -34 0 -7 9 -20 20
-30 11 -10 20 -31 20 -47 0 -25 -3 -28 -35 -28 -29 0 -36 4 -41 26 -5 19 -11
23 -23 18 -9 -4 -46 -9 -83 -12 -38 -2 -68 -9 -68 -14 0 -5 16 -24 35 -42 19
-19 35 -38 35 -43 0 -5 14 -22 30 -38 38 -37 38 -51 -2 -75 -40 -24 -118 -28
-118 -5 0 8 -8 15 -19 15 -10 0 -24 -7 -31 -15 -27 -32 -106 -9 -117 34 -7 30
-42 71 -60 71 -8 0 -13 -13 -13 -30 0 -19 -7 -33 -20 -40 -11 -6 -20 -20 -20
-30 0 -17 -7 -20 -41 -20 -32 0 -42 -4 -46 -20 -5 -18 -13 -20 -112 -19 -102
0 -107 1 -129 27 -56 67 -72 91 -72 111 0 31 -29 26 -36 -6 -12 -56 -16 -63
-33 -63 -10 0 -26 9 -36 20 -10 11 -26 20 -35 20 -10 0 -20 9 -23 20 -3 11
-12 20 -21 20 -9 0 -16 7 -16 15 0 8 -6 15 -12 15 -20 1 -58 37 -58 55 0 9 -9
19 -20 22 -11 3 -20 12 -20 19 0 8 -7 14 -15 14 -10 0 -15 11 -15 35 0 24 5
35 15 35 8 0 15 7 15 16 0 9 23 41 50 72 28 31 50 60 50 64 0 14 -28 8 -34 -7z
m1438 -316 c18 -17 -2 -20 -132 -22 -132 -2 -161 4 -129 27 20 15 245 10 261
-5z m264 -6 c3 -10 -18 -13 -82 -13 -79 0 -97 5 -79 24 13 12 156 2 161 -11z
m77 -33 c0 -18 -52 -27 -67 -12 -17 17 2 33 35 30 20 -2 32 -8 32 -18z m-588
-35 c7 -20 -24 -55 -49 -55 -24 0 -45 49 -26 62 22 13 68 9 75 -7z m450 -192
c12 -8 27 -12 33 -8 29 18 54 -47 28 -73 -19 -19 -56 -14 -68 8 -8 15 -21 20
-56 20 -38 0 -46 3 -54 25 -12 31 -54 34 -72 5 -8 -12 -24 -20 -40 -20 -18 0
-31 -8 -39 -21 -9 -17 -17 -20 -46 -16 -42 7 -79 -6 -103 -35 -16 -20 -21 -21
-45 -10 -32 15 -28 36 7 40 14 2 40 19 59 38 31 33 36 34 105 34 51 0 75 4 84
15 17 20 175 19 207 -2z"/>
<path d="M2703 2246 c-23 -24 -31 -70 -14 -80 4 -3 17 4 27 15 15 16 26 20 55
15 22 -4 42 -1 54 8 18 13 18 14 -2 20 -11 4 -28 15 -38 26 -24 27 -55 25 -82
-4z"/>
<path d="M232 2153 c-20 -8 -3 -23 27 -23 16 0 34 -7 41 -15 17 -21 30 -19 30
5 0 14 -11 22 -37 29 -41 12 -42 12 -61 4z"/>
<path d="M368 2143 c6 -2 18 -2 25 0 6 3 1 5 -13 5 -14 0 -19 -2 -12 -5z"/>
<path d="M170 2074 c0 -20 19 -39 48 -48 37 -12 44 4 15 35 -30 31 -63 39 -63
13z"/>
<path d="M350 2070 c0 -5 7 -10 16 -10 8 0 12 5 9 10 -3 6 -10 10 -16 10 -5 0
-9 -4 -9 -10z"/>
<path d="M670 2056 c-43 -16 -46 -40 -5 -44 17 -2 34 -10 38 -18 9 -16 53 -19
62 -3 4 5 0 18 -9 28 -9 10 -16 25 -16 34 0 20 -21 21 -70 3z"/>
<path d="M2795 2040 c-4 -6 -3 -16 3 -22 6 -6 12 -6 17 2 4 6 3 16 -3 22 -6 6
-12 6 -17 -2z"/>
<path d="M4227 2034 c-9 -10 2 -24 19 -24 8 0 14 7 14 15 0 15 -21 21 -33 9z"/>
<path d="M4343 2028 c2 -7 10 -13 17 -13 7 0 15 6 18 13 2 7 -5 12 -18 12 -13
0 -20 -5 -17 -12z"/>
<path d="M4457 2034 c-9 -10 2 -24 19 -24 8 0 14 7 14 15 0 15 -21 21 -33 9z"/>
<path d="M4573 2028 c2 -7 10 -13 17 -13 7 0 15 6 18 13 2 7 -5 12 -18 12 -13
0 -20 -5 -17 -12z"/>
<path d="M4690 2025 c0 -8 7 -15 15 -15 8 0 15 7 15 15 0 8 -7 15 -15 15 -8 0
-15 -7 -15 -15z"/>
<path d="M4803 2028 c2 -7 10 -13 17 -13 7 0 15 6 18 13 2 7 -5 12 -18 12 -13
0 -20 -5 -17 -12z"/>
<path d="M4920 2025 c0 -8 7 -15 15 -15 8 0 15 7 15 15 0 8 -7 15 -15 15 -8 0
-15 -7 -15 -15z"/>
<path d="M5033 2028 c2 -7 10 -13 17 -13 7 0 15 6 18 13 2 7 -5 12 -18 12 -13
0 -20 -5 -17 -12z"/>
<path d="M5150 2025 c0 -10 7 -15 18 -13 21 4 19 22 -2 26 -10 2 -16 -3 -16
-13z"/>
<path d="M5263 2028 c2 -7 10 -13 17 -13 7 0 15 6 18 13 2 7 -5 12 -18 12 -13
0 -20 -5 -17 -12z"/>
<path d="M5380 2024 c0 -9 7 -14 17 -12 25 5 28 28 4 28 -12 0 -21 -6 -21 -16z"/>
<path d="M5497 2034 c-9 -10 2 -24 19 -24 8 0 14 7 14 15 0 15 -21 21 -33 9z"/>
<path d="M5613 2028 c2 -7 10 -13 17 -13 7 0 15 6 18 13 2 7 -5 12 -18 12 -13
0 -20 -5 -17 -12z"/>
<path d="M130 2011 c0 -12 5 -21 10 -21 6 0 10 6 10 14 0 8 -4 18 -10 21 -5 3
-10 -3 -10 -14z"/>
<path d="M5720 2021 c0 -5 7 -12 16 -15 22 -9 24 -8 24 9 0 8 -9 15 -20 15
-11 0 -20 -4 -20 -9z"/>
<path d="M270 1960 c0 -47 2 -50 25 -50 21 0 25 5 25 31 0 22 5 32 20 36 40
10 22 33 -25 33 l-45 0 0 -50z"/>
<path d="M2900 1995 c0 -9 5 -15 11 -13 6 2 11 8 11 13 0 5 -5 11 -11 13 -6 2
-11 -4 -11 -13z"/>
<path d="M5825 1970 c-10 -17 12 -37 25 -24 8 8 6 15 -4 23 -10 9 -16 9 -21 1z"/>
<path d="M160 1942 c0 -15 -5 -33 -12 -40 -9 -9 -8 -15 7 -26 47 -34 85 25 44
69 -31 32 -39 31 -39 -3z"/>
<path d="M1160 1899 l-35 -18 58 -1 c50 0 57 2 57 20 0 25 -31 25 -80 -1z"/>
<path d="M306 1876 c-16 -34 -18 -35 -60 -30 -50 7 -68 -14 -37 -43 10 -10 21
-34 25 -53 9 -51 16 -56 73 -63 46 -5 54 -3 63 13 6 11 16 20 23 20 7 0 23 6
37 13 51 27 68 27 75 -1 3 -14 1 -30 -4 -35 -12 -12 -15 -77 -3 -77 4 0 23 16
42 35 19 19 38 35 42 35 14 0 8 57 -7 70 -22 18 -19 27 11 34 20 5 32 2 46
-13 18 -21 48 -27 61 -15 14 14 -46 69 -82 75 -40 8 -91 -12 -91 -36 0 -24
-21 -28 -36 -6 -10 13 -26 21 -44 21 -24 0 -29 -5 -32 -27 -2 -23 -9 -29 -33
-31 -16 -2 -34 -10 -38 -18 -12 -21 -26 -17 -39 11 -10 22 -8 29 12 50 14 15
35 25 52 25 15 0 28 5 28 10 0 6 9 10 19 10 17 0 40 35 29 45 -1 1 -28 6 -59
9 l-56 7 -17 -35z"/>
<path d="M1810 1870 c0 -16 5 -30 10 -30 6 0 10 14 10 30 0 17 -4 30 -10 30
-5 0 -10 -13 -10 -30z"/>
<path d="M5880 1860 c0 -11 5 -20 10 -20 6 0 10 9 10 20 0 11 -4 20 -10 20 -5
0 -10 -9 -10 -20z"/>
<path d="M881 1859 c-15 -6 -21 -15 -17 -24 3 -8 1 -15 -4 -15 -13 0 -13 -36
0 -61 14 -25 36 -24 43 1 3 11 12 20 21 20 9 0 16 -8 16 -20 0 -13 7 -20 20
-20 11 0 20 -7 20 -15 0 -21 33 -19 53 3 21 23 21 35 2 72 -10 20 -23 30 -39
30 -12 0 -31 9 -41 20 -20 22 -37 24 -74 9z"/>
<path d="M1735 1780 c-3 -5 -1 -10 4 -10 6 0 11 5 11 10 0 6 -2 10 -4 10 -3 0
-8 -4 -11 -10z"/>
<path d="M710 1746 c0 -9 5 -16 10 -16 6 0 10 4 10 9 0 6 -4 13 -10 16 -5 3
-10 -1 -10 -9z"/>
<path d="M5880 1740 c0 -13 5 -20 13 -17 6 2 12 10 12 17 0 7 -6 15 -12 18 -8
2 -13 -5 -13 -18z"/>
<path d="M742 1708 c5 -15 28 -18 29 -3 0 6 -7 12 -17 13 -10 3 -15 -1 -12
-10z"/>
<path d="M5886 1643 c-12 -12 -6 -33 9 -33 8 0 15 6 15 14 0 17 -14 28 -24 19z"/>
<path d="M1270 1610 c0 -5 7 -10 15 -10 8 0 15 5 15 10 0 6 -7 10 -15 10 -8 0
-15 -4 -15 -10z"/>
<path d="M1475 1611 c-3 -5 -1 -12 5 -16 5 -3 10 1 10 9 0 18 -6 21 -15 7z"/>
<path d="M2680 1581 c0 -18 7 -34 18 -40 15 -9 12 -15 -25 -53 -24 -24 -43
-49 -43 -55 0 -16 90 -25 107 -11 8 7 33 14 56 17 55 8 58 35 5 39 -51 4 -49
22 2 22 44 0 52 16 22 43 -15 14 -25 15 -56 6 -42 -12 -53 -6 -58 30 -5 37
-28 39 -28 2z"/>
<path d="M5880 1510 c0 -13 5 -20 13 -17 6 2 12 10 12 17 0 7 -6 15 -12 18 -8
2 -13 -5 -13 -18z"/>
<path d="M5882 1394 c4 -21 22 -23 26 -1 2 10 -3 17 -13 17 -10 0 -15 -6 -13
-16z"/>
<path d="M5880 1280 c0 -13 5 -20 13 -17 6 2 12 10 12 17 0 7 -6 15 -12 18 -8
2 -13 -5 -13 -18z"/>
<path d="M2402 1224 c4 -21 22 -23 26 -1 2 10 -3 17 -13 17 -10 0 -15 -6 -13
-16z"/>
<path d="M5882 1164 c4 -21 22 -23 26 -1 2 10 -3 17 -13 17 -10 0 -15 -6 -13
-16z"/>
<path d="M2400 1111 c0 -12 6 -21 16 -21 9 0 14 7 12 17 -5 25 -28 28 -28 4z"/>
<path d="M5884 1056 c-8 -22 3 -33 18 -18 9 9 9 15 0 24 -9 9 -13 7 -18 -6z"/>
<path d="M2402 994 c4 -21 22 -23 26 -1 2 10 -3 17 -13 17 -10 0 -15 -6 -13
-16z"/>
<path d="M5882 936 c1 -10 8 -17 13 -17 15 1 12 24 -3 29 -9 3 -13 -2 -10 -12z"/>
<path d="M2406 893 c-12 -12 -6 -33 9 -33 8 0 15 6 15 14 0 17 -14 28 -24 19z"/>
<path d="M5884 826 c-8 -22 3 -33 18 -18 9 9 9 15 0 24 -9 9 -13 7 -18 -6z"/>
<path d="M2402 764 c4 -21 22 -23 26 -1 2 10 -3 17 -13 17 -10 0 -15 -6 -13
-16z"/>
<path d="M5880 700 c0 -13 5 -20 13 -17 6 2 12 10 12 17 0 7 -6 15 -12 18 -8
2 -13 -5 -13 -18z"/>
<path d="M2406 663 c-12 -12 -6 -33 9 -33 8 0 15 6 15 14 0 17 -14 28 -24 19z"/>
<path d="M5886 603 c-12 -12 -6 -33 9 -33 8 0 15 6 15 14 0 17 -14 28 -24 19z"/>
<path d="M2400 529 c0 -24 23 -21 28 4 2 10 -3 17 -12 17 -10 0 -16 -9 -16
-21z"/>
<path d="M5880 470 c0 -13 5 -20 13 -17 6 2 12 10 12 17 0 7 -6 15 -12 18 -8
2 -13 -5 -13 -18z"/>
<path d="M2400 415 c0 -8 7 -15 15 -15 8 0 15 7 15 15 0 8 -7 15 -15 15 -8 0
-15 -7 -15 -15z"/>
<path d="M5882 354 c4 -21 22 -23 26 -1 2 10 -3 17 -13 17 -10 0 -15 -6 -13
-16z"/>
<path d="M2405 310 c-7 -12 2 -30 16 -30 5 0 9 9 9 20 0 21 -15 27 -25 10z"/>
<path d="M5857 246 c-3 -8 -3 -17 0 -20 7 -7 33 13 33 25 0 15 -27 10 -33 -5z"/>
<path d="M2455 210 c-10 -17 12 -37 25 -24 8 8 6 15 -4 23 -10 9 -16 9 -21 1z"/>
<path d="M5781 166 c-9 -10 -9 -16 -1 -21 17 -10 37 12 24 25 -8 8 -15 6 -23
-4z"/>
<path d="M2552 138 c5 -15 28 -18 29 -3 0 6 -7 12 -17 13 -10 3 -15 -1 -12
-10z"/>
<path d="M2660 130 c0 -5 9 -10 20 -10 11 0 20 5 20 10 0 6 -9 10 -20 10 -11
0 -20 -4 -20 -10z"/>
<path d="M2780 130 c0 -5 7 -10 15 -10 8 0 15 5 15 10 0 6 -7 10 -15 10 -8 0
-15 -4 -15 -10z"/>
<path d="M2890 130 c0 -5 9 -10 20 -10 11 0 20 5 20 10 0 6 -9 10 -20 10 -11
0 -20 -4 -20 -10z"/>
<path d="M3010 130 c0 -5 9 -10 20 -10 11 0 20 5 20 10 0 6 -9 10 -20 10 -11
0 -20 -4 -20 -10z"/>
<path d="M3120 130 c0 -5 9 -10 20 -10 11 0 20 5 20 10 0 6 -9 10 -20 10 -11
0 -20 -4 -20 -10z"/>
<path d="M3240 130 c0 -5 9 -10 20 -10 11 0 20 5 20 10 0 6 -9 10 -20 10 -11
0 -20 -4 -20 -10z"/>
<path d="M3350 130 c0 -5 9 -10 20 -10 11 0 20 5 20 10 0 6 -9 10 -20 10 -11
0 -20 -4 -20 -10z"/>
<path d="M3470 130 c0 -5 9 -10 20 -10 11 0 20 5 20 10 0 6 -9 10 -20 10 -11
0 -20 -4 -20 -10z"/>
<path d="M3590 130 c0 -5 7 -10 15 -10 8 0 15 5 15 10 0 6 -7 10 -15 10 -8 0
-15 -4 -15 -10z"/>
<path d="M3700 130 c0 -5 9 -10 20 -10 11 0 20 5 20 10 0 6 -9 10 -20 10 -11
0 -20 -4 -20 -10z"/>
<path d="M3820 130 c0 -5 7 -10 15 -10 8 0 15 5 15 10 0 6 -7 10 -15 10 -8 0
-15 -4 -15 -10z"/>
<path d="M3930 130 c0 -5 9 -10 20 -10 11 0 20 5 20 10 0 6 -9 10 -20 10 -11
0 -20 -4 -20 -10z"/>
<path d="M4050 130 c0 -5 7 -10 15 -10 8 0 15 5 15 10 0 6 -7 10 -15 10 -8 0
-15 -4 -15 -10z"/>
<path d="M4160 130 c0 -5 9 -10 20 -10 11 0 20 5 20 10 0 6 -9 10 -20 10 -11
0 -20 -4 -20 -10z"/>
<path d="M4280 130 c0 -5 9 -10 20 -10 11 0 20 5 20 10 0 6 -9 10 -20 10 -11
0 -20 -4 -20 -10z"/>
<path d="M4390 130 c0 -5 9 -10 20 -10 11 0 20 5 20 10 0 6 -9 10 -20 10 -11
0 -20 -4 -20 -10z"/>
<path d="M4510 130 c0 -5 9 -10 20 -10 11 0 20 5 20 10 0 6 -9 10 -20 10 -11
0 -20 -4 -20 -10z"/>
<path d="M4630 130 c0 -5 7 -10 15 -10 8 0 15 5 15 10 0 6 -7 10 -15 10 -8 0
-15 -4 -15 -10z"/>
<path d="M4740 130 c0 -5 9 -10 20 -10 11 0 20 5 20 10 0 6 -9 10 -20 10 -11
0 -20 -4 -20 -10z"/>
<path d="M4860 130 c0 -5 7 -10 15 -10 8 0 15 5 15 10 0 6 -7 10 -15 10 -8 0
-15 -4 -15 -10z"/>
<path d="M4970 130 c0 -5 9 -10 20 -10 11 0 20 5 20 10 0 6 -9 10 -20 10 -11
0 -20 -4 -20 -10z"/>
<path d="M5090 130 c0 -5 7 -10 15 -10 8 0 15 5 15 10 0 6 -7 10 -15 10 -8 0
-15 -4 -15 -10z"/>
<path d="M5200 130 c0 -5 9 -10 20 -10 11 0 20 5 20 10 0 6 -9 10 -20 10 -11
0 -20 -4 -20 -10z"/>
<path d="M5320 130 c0 -5 7 -10 15 -10 8 0 15 5 15 10 0 6 -7 10 -15 10 -8 0
-15 -4 -15 -10z"/>
<path d="M5430 130 c0 -5 9 -10 20 -10 11 0 20 5 20 10 0 6 -9 10 -20 10 -11
0 -20 -4 -20 -10z"/>
<path d="M5550 130 c0 -5 9 -10 20 -10 11 0 20 5 20 10 0 6 -9 10 -20 10 -11
0 -20 -4 -20 -10z"/>
<path d="M5660 130 c0 -5 9 -10 20 -10 11 0 20 5 20 10 0 6 -9 10 -20 10 -11
0 -20 -4 -20 -10z"/>
</g>
</svg>
